<?xml version="1.0" encoding="utf-8"?>
<!-- Generator: Adobe Illustrator 16.0.0, SVG Export Plug-In . SVG Version: 6.00 Build 0)  -->
<!DOCTYPE svg PUBLIC "-//W3C//DTD SVG 1.0//EN" "http://www.w3.org/TR/2001/REC-SVG-20010904/DTD/svg10.dtd">
<svg version="1.0" id="Layer_1" xmlns="http://www.w3.org/2000/svg" xmlns:xlink="http://www.w3.org/1999/xlink" x="0px" y="0px"
	 width="100px" height="100px" viewBox="0 0 100 100" enable-background="new 0 0 100 100" xml:space="preserve">
<path d="M90,26.667V20c0-3.665-3.001-6.667-6.667-6.667H16.667C13.001,13.333,10,16.335,10,20v6.667H90z"/>
<rect x="26.667" y="50" width="10" height="20"/>
<path d="M10,33.333V80c0,3.665,3.001,6.667,6.667,6.667h66.666C86.999,86.667,90,83.665,90,80V33.333H10z M43.333,76.667H20V43.333
	h23.333V76.667z M53.333,43.333h20V50h-20V43.333z M66.667,76.667H53.333V70h13.334V76.667z M80.003,63.333H53.337v-6.666h26.666
	V63.333z"/>
</svg>
