<?xml version="1.0" encoding="utf-8"?>
<!-- Generator: Adobe Illustrator 16.0.0, SVG Export Plug-In . SVG Version: 6.00 Build 0)  -->
<!DOCTYPE svg PUBLIC "-//W3C//DTD SVG 1.0//EN" "http://www.w3.org/TR/2001/REC-SVG-20010904/DTD/svg10.dtd">
<svg version="1.0" id="Layer_1" xmlns="http://www.w3.org/2000/svg" xmlns:xlink="http://www.w3.org/1999/xlink" x="0px" y="0px"
	 width="100px" height="100px" viewBox="0 0 100 100" enable-background="new 0 0 100 100" xml:space="preserve">
<path d="M23.333,40.001v33.333h20V40L23.333,40.001z M36.667,66.666H30v-20h6.667V66.666z"/>
<path d="M83.333,13.333H16.667c-3.669,0-6.667,3.001-6.667,6.668V80c0,3.666,2.998,6.666,6.667,6.666h66.666
	c3.666,0,6.667-3,6.667-6.666V20.001C90,16.334,86.999,13.333,83.333,13.333z M70,80H56.667V66.666H70V80z M83.333,80h-6.666V60H50
	v20H16.667V33.333H50v20h26.667v-20h6.666V80z M56.667,33.333H70v13.333H56.667V33.333z M83.333,26.667H16.667v-6.665h66.666V26.667
	z"/>
</svg>
