<?xml version="1.0" encoding="utf-8"?>
<!-- Generator: Adobe Illustrator 16.0.0, SVG Export Plug-In . SVG Version: 6.00 Build 0)  -->
<!DOCTYPE svg PUBLIC "-//W3C//DTD SVG 1.0//EN" "http://www.w3.org/TR/2001/REC-SVG-20010904/DTD/svg10.dtd">
<svg version="1.0" id="Layer_1" xmlns="http://www.w3.org/2000/svg" xmlns:xlink="http://www.w3.org/1999/xlink" x="0px" y="0px"
	 width="100px" height="100px" viewBox="0 0 100 100" enable-background="new 0 0 100 100" xml:space="preserve">
<path d="M70,63.333c-12.864,0-23.333-10.469-23.333-23.333S57.136,16.667,70,16.667h3.333c0-3.666-3.001-6.667-6.666-6.667H20
	c-3.665,0-6.667,3.001-6.667,6.667v66.666C13.333,86.999,16.335,90,20,90h46.667c3.665,0,6.666-3.001,6.666-6.667v-20H70z
	 M23.333,20h13.334v6.667H23.333V20z M23.333,33.333h13.334V40H23.333V33.333z M23.333,46.667h13.334v6.666H23.333V46.667z
	 M23.333,60h23.334v6.667H23.333V60z M63.333,80h-40v-6.667h40V80z"/>
<path d="M70,23.333c-9.206,0-16.667,7.461-16.667,16.667S60.794,56.667,70,56.667S86.667,49.206,86.667,40S79.206,23.333,70,23.333z
	 M68.821,47.366l-8.838-8.841l3.535-3.535l5.303,5.303l7.66-7.659l3.535,3.535L68.821,47.366z"/>
</svg>
