<?xml version="1.0" encoding="utf-8"?>
<!-- Generator: Adobe Illustrator 16.0.0, SVG Export Plug-In . SVG Version: 6.00 Build 0)  -->
<!DOCTYPE svg PUBLIC "-//W3C//DTD SVG 1.0//EN" "http://www.w3.org/TR/2001/REC-SVG-20010904/DTD/svg10.dtd">
<svg version="1.0" id="Layer_1" xmlns="http://www.w3.org/2000/svg" xmlns:xlink="http://www.w3.org/1999/xlink" x="0px" y="0px"
	 width="100px" height="100px" viewBox="0 0 100 100" enable-background="new 0 0 100 100" xml:space="preserve">
<path d="M16.667,10v30.091c0.006,7.161,1.416,14.18,4.107,20.676C26.067,73.541,36.224,84.293,50,90
	c13.776-5.707,23.933-16.459,29.226-29.232c2.691-6.496,4.102-13.515,4.107-20.676V10H16.667z M76.667,40.091
	c-0.007,6.272-1.218,12.374-3.601,18.125C68.581,69.039,60.449,77.643,50,82.695c-10.452-5.055-18.584-13.658-23.066-24.479
	c-2.383-5.756-3.594-11.856-3.601-18.132V16.667h53.334V40.091z"/>
<path d="M53.333,42.723C57.207,41.344,60,37.682,60,33.335c0-5.524-4.479-10.001-10-10.001s-10,4.478-10,10.001
	c0,4.347,2.793,8.009,6.667,9.388v23.943h11.666V60h-5v-5h5v-6.667h-5V42.723z M50,30c1.843,0,3.333,1.493,3.333,3.335
	c0,1.841-1.49,3.333-3.333,3.333s-3.333-1.493-3.333-3.333C46.667,31.493,48.157,30,50,30z"/>
</svg>
