<?xml version="1.0" encoding="utf-8"?>
<!-- Generator: Adobe Illustrator 16.0.0, SVG Export Plug-In . SVG Version: 6.00 Build 0)  -->
<!DOCTYPE svg PUBLIC "-//W3C//DTD SVG 1.0//EN" "http://www.w3.org/TR/2001/REC-SVG-20010904/DTD/svg10.dtd">
<svg version="1.0" id="Layer_1" xmlns="http://www.w3.org/2000/svg" xmlns:xlink="http://www.w3.org/1999/xlink" x="0px" y="0px"
	 width="100px" height="100px" viewBox="0 0 100 100" enable-background="new 0 0 100 100" xml:space="preserve">
<path d="M89.997,33.33c0.003-3.662-2.998-6.664-6.664-6.664H33.899c-1.836,0-4.395,1.062-5.689,2.357L11.943,45.289
	c-2.588,2.592-2.595,6.836,0,9.428l16.253,16.26c1.296,1.295,3.861,2.357,5.69,2.357h49.446c3.669,0.002,6.67-2.999,6.667-6.664
	C90,66.67,89.997,33.331,89.997,33.33z M83.333,66.666H33.887c-0.179-0.032-0.827-0.299-1.067-0.488L16.66,50.003l16.263-16.267
	c0.15-0.104,0.795-0.371,1.101-0.408l49.31,0.005V66.666z"/>
<polygon points="46.667,56.465 50.202,60 56.667,53.535 63.132,60 66.667,56.465 60.202,50 66.667,43.535 63.132,40 56.667,46.465 
	50.202,40 46.667,43.535 53.132,50 "/>
</svg>
