<svg id="Layer_1" data-name="Layer 1" xmlns="http://www.w3.org/2000/svg" viewBox="0 0 16 16"><defs><style>.cls-1{fill:#130b2c;}</style></defs><title>camera</title><path class="cls-1" d="M13.22,3.49a.67.67,0,0,0-.33.08L10.53,4.72V3.39A1.34,1.34,0,0,0,9.19,2.05H3.37A1.34,1.34,0,0,0,2,3.39v9.26A1.34,1.34,0,0,0,3.37,14H9.19a1.34,1.34,0,0,0,1.34-1.34V11.29l2.36,1.15a.67.67,0,0,0,.33.08.75.75,0,0,0,.75-.75V4.24A.75.75,0,0,0,13.22,3.49ZM9.41,12.65a.22.22,0,0,1-.22.22H3.37a.22.22,0,0,1-.22-.22V3.39a.22.22,0,0,1,.22-.22H9.19a.22.22,0,0,1,.22.22V5.27h0v5.45h0Zm3.44-1.47L10.53,10V6l2.32-1.14Z"/><path class="cls-1" d="M7.72,4.34H4.84a.37.37,0,0,0-.37.37V7.59A.36.36,0,0,0,4.84,8H7.72a.37.37,0,0,0,.37-.37V4.71A.38.38,0,0,0,7.72,4.34ZM7.35,7.22H5.21V5.09H7.35Z"/><path class="cls-1" d="M7.69,9H4.87a.37.37,0,0,0-.38.37.38.38,0,0,0,.38.37H7.69a.38.38,0,0,0,.38-.37A.37.37,0,0,0,7.69,9Z"/><path class="cls-1" d="M7.69,11H4.87a.38.38,0,1,0,0,.75H7.69a.38.38,0,1,0,0-.75Z"/></svg>