<svg id="Layer_1" data-name="Layer 1" xmlns="http://www.w3.org/2000/svg" viewBox="0 0 16 16"><defs><style>.cls-1{fill:#d3d9e2;}.cls-2{fill:#130b2c;}.cls-3{fill:#fff;}</style></defs><title>categories</title><rect class="cls-1" x="0.75" y="0.75" width="14.5" height="14.5" rx="1.38"/><path class="cls-2" d="M13.87,1.5a.63.63,0,0,1,.63.63V13.87a.63.63,0,0,1-.63.63H2.13a.63.63,0,0,1-.63-.63V2.13a.63.63,0,0,1,.63-.63H13.87m0-1.5H2.13A2.14,2.14,0,0,0,0,2.13V13.87A2.14,2.14,0,0,0,2.13,16H13.87A2.14,2.14,0,0,0,16,13.87V2.13A2.14,2.14,0,0,0,13.87,0Z"/><rect class="cls-3" x="0.18" y="6.25" width="9.89" height="3.86" transform="translate(-3.05 13.31) rotate(-90)"/><path class="cls-2" d="M7.06,13.62H3.2a.5.5,0,0,1-.5-.5V3.23a.5.5,0,0,1,.5-.5H7.06a.51.51,0,0,1,.5.5v9.89A.5.5,0,0,1,7.06,13.62Zm-3.36-1H6.56V3.73H3.7Z"/><rect class="cls-3" x="9.01" y="3.24" width="3.86" height="3.86" rx="1" transform="translate(5.77 16.1) rotate(-90)"/><path class="cls-2" d="M11.87,7.59H10A1.5,1.5,0,0,1,8.51,6.1V4.23A1.5,1.5,0,0,1,10,2.74h1.86a1.5,1.5,0,0,1,1.5,1.49V6.1A1.5,1.5,0,0,1,11.87,7.59ZM10,3.74a.49.49,0,0,0-.5.49V6.1a.49.49,0,0,0,.5.49h1.86a.5.5,0,0,0,.5-.49V4.23a.5.5,0,0,0-.5-.49Z"/><rect class="cls-3" x="9.01" y="9.27" width="3.86" height="3.86" rx="1.93" transform="translate(-0.26 22.13) rotate(-90)"/><path class="cls-2" d="M10.94,13.62a2.43,2.43,0,1,1,2.43-2.43A2.43,2.43,0,0,1,10.94,13.62Zm0-3.85a1.43,1.43,0,1,0,1.43,1.42A1.43,1.43,0,0,0,10.94,9.77Z"/></svg>