<svg id="Layer_1" data-name="Layer 1" xmlns="http://www.w3.org/2000/svg" viewBox="0 0 16 16"><defs><style>.cls-1{fill:#fff;}.cls-2{fill:#130b2c;}.cls-3{fill:#d3d9e2;}</style></defs><title>component</title><rect class="cls-1" x="0.75" y="0.77" width="14.5" height="14.5" rx="1.38"/><path class="cls-2" d="M13.87,1.52a.63.63,0,0,1,.63.63V13.89a.63.63,0,0,1-.63.63H2.13a.63.63,0,0,1-.63-.63V2.15a.63.63,0,0,1,.63-.63H13.87m0-1.5H2.13A2.14,2.14,0,0,0,0,2.15V13.89A2.14,2.14,0,0,0,2.13,16H13.87A2.14,2.14,0,0,0,16,13.89V2.15A2.14,2.14,0,0,0,13.87,0Z"/><polygon class="cls-3" points="3.73 11.55 5.55 8.73 6.97 9.85 8.94 6.9 12.27 11.55 3.73 11.55"/><path class="cls-2" d="M12.27,12.05H3.73a.51.51,0,0,1-.44-.26.49.49,0,0,1,0-.51L5.13,8.46a.49.49,0,0,1,.34-.22.46.46,0,0,1,.39.1l1,.78L8.53,6.63a.51.51,0,0,1,.4-.23.59.59,0,0,1,.42.21l3.33,4.65a.51.51,0,0,1,0,.52A.5.5,0,0,1,12.27,12.05Zm-7.62-1H11.3L9,7.78,7.38,10.12a.49.49,0,0,1-.34.22.47.47,0,0,1-.38-.1l-1-.78Z"/><circle class="cls-3" cx="5.76" cy="5.52" r="1.03"/><path class="cls-2" d="M5.76,7.05A1.53,1.53,0,1,1,7.29,5.52,1.53,1.53,0,0,1,5.76,7.05ZM5.76,5a.53.53,0,0,0,0,1.06A.53.53,0,1,0,5.76,5Z"/></svg>