<svg id="Layer_1" data-name="Layer 1" xmlns="http://www.w3.org/2000/svg" viewBox="0 0 16 16"><defs><style>.cls-1{fill:#fff;}.cls-2{fill:#d3d9e2;}.cls-3{fill:#130b2c;}</style></defs><title>eyes</title><path class="cls-1" d="M10.62.8C13.2.8,15.3,4,15.3,8s-2.1,7.2-4.68,7.2S6,12,6,8,8,.8,10.62.8Z"/><path class="cls-2" d="M13.81,13.27a4,4,0,0,1-3.19,1.93C8,15.2,6,12,6,8S8,.8,10.62.8a2.86,2.86,0,0,1,.92.15,9.26,9.26,0,0,0-1.49,5.26C10.05,9.71,11.67,12.62,13.81,13.27Z"/><path class="cls-3" d="M10.62,16C7.58,16,5.2,12.46,5.2,8S7.58.05,10.62.05s5.43,3.49,5.43,8S13.67,16,10.62,16Zm0-14.4C8.5,1.55,6.7,4.5,6.7,8s1.8,6.45,3.92,6.45S14.55,11.5,14.55,8,12.75,1.55,10.62,1.55Z"/><path class="cls-1" d="M5.37.8C8,.8,10.05,4,10.05,8S8,15.2,5.37,15.2.7,12,.7,8,2.79.8,5.37.8Z"/><path class="cls-2" d="M8.8,12.89A4.16,4.16,0,0,1,5.37,15.2C2.79,15.2.7,12,.7,8c0-3.64,1.75-6.65,4-7.12A9.5,9.5,0,0,0,3.48,5.77c0,4,2.09,7.2,4.67,7.2A2.36,2.36,0,0,0,8.8,12.89Z"/><path class="cls-3" d="M5.37,16C2.33,16,0,12.46,0,8S2.33.05,5.37.05,10.8,3.54,10.8,8,8.42,16,5.37,16Zm0-14.4c-2.12,0-3.92,3-3.92,6.45s1.8,6.45,3.92,6.45S9.3,11.5,9.3,8,7.5,1.55,5.37,1.55Z"/><path class="cls-3" d="M15.3,8a9.54,9.54,0,0,1-.1,1.43,2.26,2.26,0,0,1-.79.14,2.23,2.23,0,0,1,0-4.46,2,2,0,0,1,.49.06A9.82,9.82,0,0,1,15.3,8Z"/><path class="cls-3" d="M10.16,8a9.54,9.54,0,0,1-.1,1.43,2.26,2.26,0,0,1-.79.14,2.23,2.23,0,1,1,0-4.46,2,2,0,0,1,.49.06A9.82,9.82,0,0,1,10.16,8Z"/></svg>