<svg id="Layer_1" data-name="Layer 1" xmlns="http://www.w3.org/2000/svg" viewBox="0 0 16 16"><defs><style>.cls-1{fill:#fff;}.cls-2{fill:#d3d9e2;}.cls-3{fill:#130b2c;}</style></defs><title>layout</title><path class="cls-1" d="M6,5.31h9.27a0,0,0,0,1,0,0v8.43a1.45,1.45,0,0,1-1.45,1.45H6a0,0,0,0,1,0,0V5.31A0,0,0,0,1,6,5.31Z"/><path class="cls-2" d="M2.1.75H14a1.31,1.31,0,0,1,1.31,1.31V5.31a0,0,0,0,1,0,0H.79a0,0,0,0,1,0,0V2.06A1.31,1.31,0,0,1,2.1.75Z"/><path class="cls-2" d="M.79,5.31H6a0,0,0,0,1,0,0v9.88a0,0,0,0,1,0,0H2.31A1.53,1.53,0,0,1,.79,13.66V5.31A0,0,0,0,1,.79,5.31Z"/><path class="cls-3" d="M12.51,9.06H8.72a.51.51,0,0,1-.5-.5.5.5,0,0,1,.5-.5h3.79a.5.5,0,0,1,.5.5A.51.51,0,0,1,12.51,9.06Z"/><path class="cls-3" d="M12.51,12.19H8.72a.5.5,0,0,1,0-1h3.79a.5.5,0,0,1,0,1Z"/><path class="cls-3" d="M13.87,0H2.13A2.14,2.14,0,0,0,0,2.13V13.87A2.14,2.14,0,0,0,2.13,16H13.87A2.14,2.14,0,0,0,16,13.87V2.13A2.14,2.14,0,0,0,13.87,0ZM1.5,13.87V6.06H5.3V14.5H2.13A.63.63,0,0,1,1.5,13.87Zm13,0a.63.63,0,0,1-.63.63H6.8V6.06h7.7ZM1.5,4.56V2.13a.63.63,0,0,1,.63-.63H13.87a.63.63,0,0,1,.63.63V4.56Z"/></svg>