<svg id="Layer_1" data-name="Layer 1" xmlns="http://www.w3.org/2000/svg" viewBox="0 0 16 22.4"><defs><style>.cls-1{fill:none;stroke:#000;stroke-linecap:round;stroke-miterlimit:10;stroke-width:1.5px;}</style></defs><title>lock</title><path d="M12.79,7.43A1.72,1.72,0,0,1,14.5,9.14V14.4a6.5,6.5,0,0,1-13,0V9.14A1.72,1.72,0,0,1,3.21,7.43h9.58m0-1.5H3.21A3.21,3.21,0,0,0,0,9.14V14.4a8,8,0,0,0,8,8H8a8,8,0,0,0,8-8V9.14a3.21,3.21,0,0,0-3.21-3.21Z"/><path class="cls-1" d="M11,13.34A3,3,0,0,1,9.38,16v.62a1.36,1.36,0,0,1-2.72,0V16A3,3,0,1,1,11,13.34Z"/><path d="M8,1.5A2.45,2.45,0,0,1,10.45,4V5.86H5.55V4A2.45,2.45,0,0,1,8,1.5M8,0A4,4,0,0,0,4.05,4v2.9a.51.51,0,0,0,.51.51h6.88A.51.51,0,0,0,12,6.85V4A4,4,0,0,0,8,0Z"/></svg>