<svg width="24" height="24" viewBox="0 0 24 24" fill="none" xmlns="http://www.w3.org/2000/svg">
<path d="M12.0173 0C5.3963 0 0.0292969 5.367 0.0292969 11.987C0.0292969 17.066 3.18729 21.404 7.64729 23.149C7.5423 22.2 7.4483 20.746 7.6883 19.71C7.9073 18.773 9.0943 13.753 9.0943 13.753C9.0943 13.753 8.7353 13.033 8.7353 11.972C8.7353 10.309 9.7023 9.061 10.9033 9.061C11.9273 9.061 12.4213 9.83 12.4213 10.749C12.4213 11.778 11.7683 13.316 11.4293 14.741C11.1443 15.934 12.0293 16.906 13.2043 16.906C15.3323 16.906 16.9723 14.661 16.9723 11.419C16.9723 8.558 14.9093 6.55 11.9643 6.55C8.55429 6.55 6.55529 9.112 6.55529 11.749C6.55529 12.782 6.9493 13.892 7.4443 14.49C7.5433 14.61 7.55629 14.715 7.52929 14.835C7.43929 15.21 7.2363 16.034 7.1953 16.198C7.1423 16.423 7.0233 16.469 6.7943 16.363C5.2993 15.673 4.3613 13.485 4.3613 11.717C4.3613 7.941 7.1093 4.465 12.2813 4.465C16.4393 4.465 19.6733 7.432 19.6733 11.388C19.6733 15.523 17.0663 18.85 13.4403 18.85C12.2263 18.85 11.0863 18.221 10.6823 17.471L9.9333 20.319C9.6643 21.364 8.9293 22.671 8.4353 23.465C9.5583 23.81 10.7413 24 11.9853 24C18.5923 24 23.9703 18.635 23.9703 12.013C23.9703 5.39 18.5923 0.026 11.9853 0.026L12.0173 0Z" fill="#1D1043"/>
</svg>
