<svg id="Layer_1" data-name="Layer 1" xmlns="http://www.w3.org/2000/svg" viewBox="0 0 16 16"><defs><style>.cls-1{fill:#130b2c;}</style></defs><title>podcast</title><path class="cls-1" d="M13,7.28a.53.53,0,0,0-.53-.54.54.54,0,0,0-.53.54,3.94,3.94,0,0,1-7.88,0,.54.54,0,0,0-.53-.54A.53.53,0,0,0,3,7.28a5,5,0,0,0,4.47,5v1.3H6.12a.53.53,0,0,0-.53.53.53.53,0,0,0,.53.53H9.88a.53.53,0,0,0,.53-.53.53.53,0,0,0-.53-.53H8.53v-1.3A5,5,0,0,0,13,7.28Z"/><path class="cls-1" d="M8,10.34a2.86,2.86,0,0,0,2.86-2.85V4.07a2.86,2.86,0,0,0-5.72,0V7.49A2.86,2.86,0,0,0,8,10.34ZM8,9.28A1.79,1.79,0,0,1,6.21,7.49H9.79A1.79,1.79,0,0,1,8,9.28Zm0-7A1.79,1.79,0,0,1,9.79,4.07V6.78H6.21V4.07A1.79,1.79,0,0,1,8,2.28Z"/><path class="cls-1" d="M7.27,5.79H8.82a.36.36,0,1,0,0-.71H7.27a.36.36,0,0,0,0,.71Z"/><path class="cls-1" d="M7.27,4.4H8.82a.36.36,0,1,0,0-.71H7.27a.36.36,0,0,0,0,.71Z"/></svg>