<svg id="Layer_1" data-name="Layer 1" xmlns="http://www.w3.org/2000/svg" viewBox="0 0 16 16"><defs><style>.cls-1{fill:#fff;}.cls-2{fill:#130b2c;}.cls-3{fill:#d3d9e2;}</style></defs><title>series</title><rect class="cls-1" x="5.03" y="8.11" width="10.25" height="7.16" rx="0.59"/><path class="cls-2" d="M14.53,8.86v5.66H5.78V8.86h8.75m.16-1.5H5.63A1.34,1.34,0,0,0,4.28,8.71v6A1.35,1.35,0,0,0,5.63,16h9.06A1.35,1.35,0,0,0,16,14.67v-6a1.34,1.34,0,0,0-1.34-1.35Z"/><rect class="cls-3" x="2.9" y="4.42" width="10.25" height="7.16" rx="0.59"/><path class="cls-2" d="M12.4,5.17v5.66H3.65V5.17H12.4m.15-1.5H3.49A1.34,1.34,0,0,0,2.15,5v6a1.34,1.34,0,0,0,1.34,1.35h9.06A1.34,1.34,0,0,0,13.9,11V5a1.34,1.34,0,0,0-1.35-1.35Z"/><rect class="cls-1" x="0.76" y="0.73" width="10.25" height="7.16" rx="0.59"/><path class="cls-2" d="M10.26,1.48V7.14H1.51V1.48h8.75M10.42,0H1.36A1.35,1.35,0,0,0,0,1.33v6A1.34,1.34,0,0,0,1.36,8.64h9.06a1.34,1.34,0,0,0,1.34-1.35v-6A1.35,1.35,0,0,0,10.42,0Z"/><path class="cls-2" d="M4.55,5.27V3.36A.39.39,0,0,1,5.11,3L7,4a.38.38,0,0,1,0,.69l-1.9,1A.39.39,0,0,1,4.55,5.27Z"/></svg>