<svg id="Icons" xmlns="http://www.w3.org/2000/svg" viewBox="0 0 95.02 23.9"><defs><style>.cls-1{fill:#130b2c;}.cls-2{fill:#6937ff;}.cls-3{fill:#0f0f25;}</style></defs><title>Artboard 14 copy 15</title><rect class="cls-1" width="23.9" height="23.9" rx="5"/><rect class="cls-2" x="3.98" y="3.98" width="15.94" height="15.94" rx="7.97"/><path class="cls-3" d="M9.82,14.57V9.84a.7.7,0,0,1,1-.61l4.29,2.33a.69.69,0,0,1,0,1.21l-4.29,2.4A.7.7,0,0,1,9.82,14.57Z"/><path class="cls-1" d="M34.18,9.11H30.7V6h11V9.11H38.19V17.9h-4Z"/><path class="cls-1" d="M55,14.87v3H45.1V6h9.67V9H49v1.39h5v2.89H49v1.56Z"/><path class="cls-1" d="M58.92,6h4v8.79H68.3V17.9H58.92Z"/><path class="cls-1" d="M71.79,6h4v8.79h5.37V17.9H71.79Z"/><path class="cls-1" d="M90.54,13.58V17.9h-4V13.53L82,6h4.23l2.43,4.12L91.15,6H95Z"/></svg>