<svg id="Layer_1" data-name="Layer 1" xmlns="http://www.w3.org/2000/svg" viewBox="0 0 16 16"><defs><style>.cls-1{fill:#d3d9e2;}.cls-2{fill:#fff;}.cls-3{fill:#130b2c;}</style></defs><title>video</title><path class="cls-1" d="M2.24.54h11.5a1.51,1.51,0,0,1,1.51,1.51V5.31a0,0,0,0,1,0,0H.73a0,0,0,0,1,0,0V2.05A1.51,1.51,0,0,1,2.24.54Z"/><path class="cls-2" d="M2.13,15.25A1.38,1.38,0,0,1,.75,13.87V5.31h14.5v8.56a1.38,1.38,0,0,1-1.38,1.38Z"/><path class="cls-3" d="M7,11.64l2.39-1.2a.48.48,0,0,0,0-.86L7,8.39a.48.48,0,0,0-.7.43v2.39A.48.48,0,0,0,7,11.64Z"/><path class="cls-3" d="M13.87,0H2.13A2.14,2.14,0,0,0,0,2.13V13.87A2.14,2.14,0,0,0,2.13,16H13.87A2.14,2.14,0,0,0,16,13.87V2.13A2.14,2.14,0,0,0,13.87,0ZM10.56,1.5l3.06,3.06H10.21L7.15,1.5Zm-4.82,0L8.8,4.56H5.39L2.33,1.5ZM1.5,2.13s0,0,0,0L4,4.56H1.5Zm13,11.74a.63.63,0,0,1-.63.63H2.13a.63.63,0,0,1-.63-.63V6.06h13ZM14.5,4,12,1.5h1.89a.63.63,0,0,1,.63.63Z"/></svg>