<svg id="Layer_1" data-name="Layer 1" xmlns="http://www.w3.org/2000/svg" viewBox="0 0 16 16"><defs><style>.cls-1{fill:#130b2c;}</style></defs><title>webinar</title><path class="cls-1" d="M14.67,12.38l-2-2.73V4.1a1.59,1.59,0,0,0-1.59-1.59H4.91A1.59,1.59,0,0,0,3.32,4.1V9.65l-2,2.73a.8.8,0,0,0,.73,1.11H13.94A.8.8,0,0,0,14.67,12.38ZM7,6.22A1,1,0,0,1,9,6.22a1,1,0,0,1-.21.61,1,1,0,0,1-1.64,0A1,1,0,0,1,7,6.22ZM7,8.45a1,1,0,0,1,.21-.61,1.78,1.78,0,0,0,1.64,0A1,1,0,0,1,9,8.45V9.63H7ZM4.51,4.1a.4.4,0,0,1,.4-.4h6.18a.4.4,0,0,1,.4.4V9.63H9.82V8.45a1.82,1.82,0,0,0-.38-1.11,1.82,1.82,0,1,0-2.88,0,1.82,1.82,0,0,0-.38,1.11V9.63H4.51ZM2.87,12.3l1.06-1.46h8.14l1.06,1.46Z"/><path class="cls-1" d="M9.84,11.17H6.16a.4.4,0,0,0,0,.8H9.84a.4.4,0,0,0,0-.8Z"/></svg>