<svg width="24" height="24" viewBox="0 0 24 24" fill="none" xmlns="http://www.w3.org/2000/svg">
<path d="M23.4941 6.20474C23.3551 5.7065 23.0898 5.25256 22.7241 4.88679C22.3583 4.52102 21.9043 4.25579 21.4061 4.11674C19.5361 3.61574 12.0101 3.61574 12.0101 3.61574C12.0101 3.61574 4.50313 3.60574 2.61413 4.11674C2.11589 4.25579 1.66195 4.52102 1.29618 4.88679C0.930402 5.25256 0.665173 5.7065 0.526122 6.20474C0.171643 8.11925 -0.00311721 10.0627 0.00412224 12.0098C-0.00174862 13.9495 0.173006 15.8855 0.526122 17.7928C0.665173 18.291 0.930402 18.745 1.29618 19.1107C1.66195 19.4765 2.11589 19.7417 2.61413 19.8808C4.48213 20.3828 12.0101 20.3828 12.0101 20.3828C12.0101 20.3828 19.5161 20.3828 21.4061 19.8808C21.9043 19.7417 22.3583 19.4765 22.7241 19.1107C23.0898 18.745 23.3551 18.291 23.4941 17.7928C23.8398 15.8848 24.0072 13.9488 23.9941 12.0098C24.0086 10.0634 23.8412 8.11994 23.4941 6.20474ZM9.60812 15.6008V8.40774L15.8721 12.0098L9.60812 15.6008Z" fill="#1D1043"/>
</svg>
